<svg width="120" height="120" viewBox="0 0 120 120" fill="none" xmlns="http://www.w3.org/2000/svg">
  <rect width="120" height="120" rx="60" fill="#E5E7EB"/>
  <path d="M60 30C44.536 30 32 42.536 32 58C32 73.464 44.536 86 60 86C75.464 86 88 73.464 88 58C88 42.536 75.464 30 60 30ZM60 38C65.523 38 70 42.477 70 48C70 53.523 65.523 58 60 58C54.477 58 50 53.523 50 48C50 42.477 54.477 38 60 38ZM60 78C52.268 78 45.071 74.018 40.5 67.5C40.571 62.75 44.5 58.5 50 56.5C52.5 55.5 55.5 56 57.5 58C59.5 60 62.5 60.5 65 59.5C70.5 57.5 74.5 61.75 74.5 67.5C69.929 74.018 62.732 78 60 78Z" fill="#9CA3AF"/>
</svg>
